<?xml version="1.0" encoding="UTF-8"?>
<svg id="Layer_1" data-name="Layer 1" xmlns="http://www.w3.org/2000/svg" viewBox="0 0 289.11 179.32">
  <defs>
    <style>
      .cls-1 {
        fill: none;
        stroke: #ed1c24;
        stroke-width: 3px;
      }

      .cls-1, .cls-2 {
        stroke-miterlimit: 10;
      }

      .cls-2 {
        fill: #fff;
        stroke: #231f20;
      }
    </style>
  </defs>
  <rect class="cls-2" x=".5" y=".5" width="288.11" height="178.32" rx="9" ry="9"/>
  <rect class="cls-2" x=".5" y=".5" width="288.11" height="178.32" rx="9" ry="9"/>
  <path class="cls-1" d="m159.3,87.65c6-15.39,15.33-38.63,21.33-54.02,6,15.06,15.68,38.96,21.68,54.02-6.64,17.1-15.04,36.74-21.68,53.85-5.36-16.77-15.97-37.07-21.33-53.85Z"/>
  <path class="cls-1" d="m85.52,87.5c6-15.39,15.33-38.63,21.33-54.02,6,15.06,15.68,38.96,21.68,54.02-6.64,17.1-15.04,36.74-21.68,53.85-5.36-16.77-15.97-37.07-21.33-53.85Z"/>
</svg>