<?xml version="1.0" encoding="iso-8859-1"?>
<!-- Generator: Adobe Illustrator 27.4.1, SVG Export Plug-In . SVG Version: 6.00 Build 0)  -->
<svg version="1.1" xmlns="http://www.w3.org/2000/svg" xmlns:xlink="http://www.w3.org/1999/xlink" x="0px" y="0px"
	 viewBox="0 0 289.112 179.322" style="enable-background:new 0 0 289.112 179.322;" xml:space="preserve">
<g id="BFD2">
	<path style="fill:#FFFFFF;stroke:#000000;stroke-miterlimit:10;" d="M279.612,178.822H9.5c-4.971,0-9-4.029-9-9V9.5
		c0-4.971,4.029-9,9-9h270.112c4.971,0,9,4.029,9,9v160.322C288.612,174.792,284.582,178.822,279.612,178.822z"/>
	<path style="fill:#0072BC;stroke:#000000;stroke-width:3;stroke-miterlimit:10;" d="M159.301,87.65
		c6.002-15.394,15.327-38.627,21.329-54.021c6.001,15.065,15.677,38.956,21.678,54.021c-6.642,17.103-15.036,36.743-21.678,53.846
		C175.268,124.723,164.662,104.424,159.301,87.65z"/>
	<path style="fill:#0072BC;stroke:#000000;stroke-width:3;stroke-miterlimit:10;" d="M85.524,87.504
		c6.002-15.394,15.327-38.627,21.329-54.021c6.001,15.065,15.677,38.956,21.678,54.021c-6.642,17.103-15.036,36.743-21.678,53.846
		C101.492,124.576,90.886,104.277,85.524,87.504z"/>
</g>
<g id="Layer_1">
</g>
</svg>
