<?xml version="1.0" encoding="iso-8859-1"?>
<!-- Generator: Adobe Illustrator 27.4.1, SVG Export Plug-In . SVG Version: 6.00 Build 0)  -->
<svg version="1.1" xmlns="http://www.w3.org/2000/svg" xmlns:xlink="http://www.w3.org/1999/xlink" x="0px" y="0px"
	 viewBox="0 0 289.112 179.322" style="enable-background:new 0 0 289.112 179.322;" xml:space="preserve">
<g id="BFL1">
	<path style="fill:#FFFFFF;stroke:#000000;stroke-miterlimit:10;" d="M279.612,178.822H9.5c-4.971,0-9-4.029-9-9V9.5
		c0-4.971,4.029-9,9-9h270.112c4.971,0,9,4.029,9,9v160.322C288.612,174.792,284.582,178.822,279.612,178.822z"/>
	<path style="fill:#0072BC;stroke:#000000;stroke-width:3;stroke-miterlimit:10;" d="M125.909,117.607c0-20.455,0-40.909,0-61.364
		c1.415-8.726,8.751-15.231,17.257-15.565c9.136-0.359,17.393,6.489,18.757,15.915c0,20.804,0,41.608,0,62.413
		c-1.347,8.855-8.542,15.476-16.781,15.984C135.685,135.573,126.783,127.982,125.909,117.607z"/>
</g>
<g id="Layer_1">
</g>
</svg>
