<?xml version="1.0" encoding="UTF-8"?>
<svg id="Layer_2" data-name="Layer 2" xmlns="http://www.w3.org/2000/svg" xmlns:xlink="http://www.w3.org/1999/xlink" viewBox="0 0 289.11 181.37">
  <defs>
    <style>
      .cls-1, .cls-2, .cls-3 {
        fill: none;
      }

      .cls-2 {
        stroke-width: 3px;
      }

      .cls-2, .cls-4, .cls-3 {
        stroke-miterlimit: 10;
      }

      .cls-2, .cls-3 {
        stroke: #0072bc;
      }

      .cls-5 {
        clip-path: url(#clippath);
      }

      .cls-6 {
        clip-path: url(#clippath-1);
      }

      .cls-7 {
        clip-path: url(#clippath-2);
      }

      .cls-4 {
        fill: #fff;
        stroke: #231f20;
      }

      .cls-3 {
        stroke-width: 2px;
      }
    </style>
    <clipPath id="clippath">
      <path class="cls-1" d="m122.88,88.52c6-15.39,15.33-38.63,21.33-54.02,6,15.06,15.68,38.96,21.68,54.02-6.64,17.1-15.04,36.74-21.68,53.85-5.36-16.77-15.97-37.07-21.33-53.85Z"/>
    </clipPath>
    <clipPath id="clippath-1">
      <path class="cls-1" d="m180.8,88.52c6-15.39,15.33-38.63,21.33-54.02,6,15.06,15.68,38.96,21.68,54.02-6.64,17.1-15.04,36.74-21.68,53.85-5.36-16.77-15.97-37.07-21.33-53.85Z"/>
    </clipPath>
    <clipPath id="clippath-2">
      <path class="cls-1" d="m64.02,88.52c6-15.39,15.33-38.63,21.33-54.02,6,15.06,15.68,38.96,21.68,54.02-6.64,17.1-15.04,36.74-21.68,53.85-5.36-16.77-15.97-37.07-21.33-53.85Z"/>
    </clipPath>
  </defs>
  <g id="BSD3">
    <g id="Layer_89" data-name="Layer 89">
      <rect class="cls-4" x=".5" y="1.52" width="288.11" height="178.32" rx="9" ry="9"/>
    </g>
    <g class="cls-5">
      <g>
        <path class="cls-3" d="m112.15,180.37c72,0-10.33,0,61.67,0"/>
        <path class="cls-3" d="m112.15,176.1c70.78,0-9.1,0,61.67,0"/>
        <path class="cls-3" d="m112.15,171.83c69.55,0-7.88,0,61.67,0"/>
        <path class="cls-3" d="m112.15,167.56c68.33,0-6.65,0,61.67,0"/>
        <path class="cls-3" d="m112.15,163.29c67.1,0-5.43,0,61.67,0"/>
        <path class="cls-3" d="m112.15,159.02c65.88,0-4.2,0,61.67,0"/>
        <path class="cls-3" d="m112.15,154.75c64.65,0-2.98,0,61.67,0"/>
        <path class="cls-3" d="m112.15,150.48c63.43,0-1.75,0,61.67,0"/>
        <path class="cls-3" d="m112.15,146.2c62.2,0-.53,0,61.67,0"/>
        <path class="cls-3" d="m112.15,141.93c60.98,0,.69,0,61.67,0"/>
        <path class="cls-3" d="m112.15,137.66c59.75,0,1.92,0,61.67,0"/>
        <path class="cls-3" d="m112.15,133.39c58.53,0,3.14,0,61.67,0"/>
        <path class="cls-3" d="m112.15,129.12c57.3,0,4.37,0,61.67,0"/>
        <path class="cls-3" d="m112.15,124.85c56.08,0,5.59,0,61.67,0"/>
        <path class="cls-3" d="m112.15,120.58c54.85,0,6.82,0,61.67,0"/>
        <path class="cls-3" d="m112.15,116.31c53.63,0,8.04,0,61.67,0"/>
        <path class="cls-3" d="m112.15,112.04c52.4,0,9.27,0,61.67,0"/>
        <path class="cls-3" d="m112.15,107.77c51.18,0,10.49,0,61.67,0"/>
        <path class="cls-3" d="m112.15,103.5c49.95,0,11.72,0,61.67,0"/>
        <path class="cls-3" d="m112.15,99.23c48.73,0,12.94,0,61.67,0"/>
        <path class="cls-3" d="m112.15,94.96c47.5,0,14.17,0,61.67,0"/>
        <path class="cls-3" d="m112.15,90.69c46.28,0,15.39,0,61.67,0"/>
        <path class="cls-3" d="m112.15,86.41c45.05,0,16.62,0,61.67,0"/>
        <path class="cls-3" d="m112.15,82.14c43.83,0,17.84,0,61.67,0"/>
        <path class="cls-3" d="m112.15,77.87c42.6,0,19.07,0,61.67,0"/>
        <path class="cls-3" d="m112.15,73.6c41.38,0,20.29,0,61.67,0"/>
        <path class="cls-3" d="m112.15,69.33c40.15,0,21.52,0,61.67,0"/>
        <path class="cls-3" d="m112.15,65.06c38.93,0,22.74,0,61.67,0"/>
        <path class="cls-3" d="m112.15,60.79c37.7,0,23.97,0,61.67,0"/>
        <path class="cls-3" d="m112.15,56.52c36.48,0,25.19,0,61.67,0"/>
        <path class="cls-3" d="m112.15,52.25c35.26,0,26.42,0,61.67,0"/>
        <path class="cls-3" d="m112.15,47.98c34.03,0,27.64,0,61.67,0"/>
        <path class="cls-3" d="m112.15,43.71c32.81,0,28.87,0,61.67,0"/>
        <path class="cls-3" d="m112.15,39.44c31.58,0,30.09,0,61.67,0"/>
        <path class="cls-3" d="m112.15,35.17c30.36,0,31.32,0,61.67,0"/>
        <path class="cls-3" d="m112.15,30.9c29.13,0,32.54,0,61.67,0"/>
        <path class="cls-3" d="m112.15,26.62c27.91,0,33.77,0,61.67,0"/>
        <path class="cls-3" d="m112.15,22.35c26.68,0,34.99,0,61.67,0"/>
        <path class="cls-3" d="m112.15,18.08c25.46,0,36.21,0,61.67,0"/>
        <path class="cls-3" d="m112.15,13.81c24.23,0,37.44,0,61.67,0"/>
        <path class="cls-3" d="m112.15,9.54c23.01,0,38.66,0,61.67,0"/>
        <path class="cls-3" d="m112.15,5.27c21.78,0,39.89,0,61.67,0"/>
        <path class="cls-3" d="m112.15,1h61.67"/>
      </g>
    </g>
    <g class="cls-6">
      <g>
        <path class="cls-3" d="m173.82,180.37c72,0-10.33,0,61.67,0"/>
        <path class="cls-3" d="m173.82,176.1c70.78,0-9.1,0,61.67,0"/>
        <path class="cls-3" d="m173.82,171.83c69.55,0-7.88,0,61.67,0"/>
        <path class="cls-3" d="m173.82,167.56c68.33,0-6.65,0,61.67,0"/>
        <path class="cls-3" d="m173.82,163.29c67.1,0-5.43,0,61.67,0"/>
        <path class="cls-3" d="m173.82,159.02c65.88,0-4.2,0,61.67,0"/>
        <path class="cls-3" d="m173.82,154.75c64.65,0-2.98,0,61.67,0"/>
        <path class="cls-3" d="m173.82,150.48c63.43,0-1.75,0,61.67,0"/>
        <path class="cls-3" d="m173.82,146.2c62.2,0-.53,0,61.67,0"/>
        <path class="cls-3" d="m173.82,141.93c60.98,0,.69,0,61.67,0"/>
        <path class="cls-3" d="m173.82,137.66c59.75,0,1.92,0,61.67,0"/>
        <path class="cls-3" d="m173.82,133.39c58.53,0,3.14,0,61.67,0"/>
        <path class="cls-3" d="m173.82,129.12c57.3,0,4.37,0,61.67,0"/>
        <path class="cls-3" d="m173.82,124.85c56.08,0,5.59,0,61.67,0"/>
        <path class="cls-3" d="m173.82,120.58c54.85,0,6.82,0,61.67,0"/>
        <path class="cls-3" d="m173.82,116.31c53.63,0,8.04,0,61.67,0"/>
        <path class="cls-3" d="m173.82,112.04c52.4,0,9.27,0,61.67,0"/>
        <path class="cls-3" d="m173.82,107.77c51.18,0,10.49,0,61.67,0"/>
        <path class="cls-3" d="m173.82,103.5c49.95,0,11.72,0,61.67,0"/>
        <path class="cls-3" d="m173.82,99.23c48.73,0,12.94,0,61.67,0"/>
        <path class="cls-3" d="m173.82,94.96c47.5,0,14.17,0,61.67,0"/>
        <path class="cls-3" d="m173.82,90.69c46.28,0,15.39,0,61.67,0"/>
        <path class="cls-3" d="m173.82,86.41c45.05,0,16.62,0,61.67,0"/>
        <path class="cls-3" d="m173.82,82.14c43.83,0,17.84,0,61.67,0"/>
        <path class="cls-3" d="m173.82,77.87c42.6,0,19.07,0,61.67,0"/>
        <path class="cls-3" d="m173.82,73.6c41.38,0,20.29,0,61.67,0"/>
        <path class="cls-3" d="m173.82,69.33c40.15,0,21.52,0,61.67,0"/>
        <path class="cls-3" d="m173.82,65.06c38.93,0,22.74,0,61.67,0"/>
        <path class="cls-3" d="m173.82,60.79c37.7,0,23.97,0,61.67,0"/>
        <path class="cls-3" d="m173.82,56.52c36.48,0,25.19,0,61.67,0"/>
        <path class="cls-3" d="m173.82,52.25c35.26,0,26.42,0,61.67,0"/>
        <path class="cls-3" d="m173.82,47.98c34.03,0,27.64,0,61.67,0"/>
        <path class="cls-3" d="m173.82,43.71c32.81,0,28.87,0,61.67,0"/>
        <path class="cls-3" d="m173.82,39.44c31.58,0,30.09,0,61.67,0"/>
        <path class="cls-3" d="m173.82,35.17c30.36,0,31.32,0,61.67,0"/>
        <path class="cls-3" d="m173.82,30.9c29.13,0,32.54,0,61.67,0"/>
        <path class="cls-3" d="m173.82,26.62c27.91,0,33.77,0,61.67,0"/>
        <path class="cls-3" d="m173.82,22.35c26.68,0,34.99,0,61.67,0"/>
        <path class="cls-3" d="m173.82,18.08c25.46,0,36.21,0,61.67,0"/>
        <path class="cls-3" d="m173.82,13.81c24.23,0,37.44,0,61.67,0"/>
        <path class="cls-3" d="m173.82,9.54c23.01,0,38.66,0,61.67,0"/>
        <path class="cls-3" d="m173.82,5.27c21.78,0,39.89,0,61.67,0"/>
        <path class="cls-3" d="m173.82,1h61.67"/>
      </g>
    </g>
    <g class="cls-7">
      <g>
        <path class="cls-3" d="m50.98,180.37c72,0-10.33,0,61.67,0"/>
        <path class="cls-3" d="m50.98,176.1c70.78,0-9.1,0,61.67,0"/>
        <path class="cls-3" d="m50.98,171.83c69.55,0-7.88,0,61.67,0"/>
        <path class="cls-3" d="m50.98,167.56c68.33,0-6.65,0,61.67,0"/>
        <path class="cls-3" d="m50.98,163.29c67.1,0-5.43,0,61.67,0"/>
        <path class="cls-3" d="m50.98,159.02c65.88,0-4.2,0,61.67,0"/>
        <path class="cls-3" d="m50.98,154.75c64.65,0-2.98,0,61.67,0"/>
        <path class="cls-3" d="m50.98,150.48c63.43,0-1.75,0,61.67,0"/>
        <path class="cls-3" d="m50.98,146.2c62.2,0-.53,0,61.67,0"/>
        <path class="cls-3" d="m50.98,141.93c60.98,0,.69,0,61.67,0"/>
        <path class="cls-3" d="m50.98,137.66c59.75,0,1.92,0,61.67,0"/>
        <path class="cls-3" d="m50.98,133.39c58.53,0,3.14,0,61.67,0"/>
        <path class="cls-3" d="m50.98,129.12c57.3,0,4.37,0,61.67,0"/>
        <path class="cls-3" d="m50.98,124.85c56.08,0,5.59,0,61.67,0"/>
        <path class="cls-3" d="m50.98,120.58c54.85,0,6.82,0,61.67,0"/>
        <path class="cls-3" d="m50.98,116.31c53.63,0,8.04,0,61.67,0"/>
        <path class="cls-3" d="m50.98,112.04c52.4,0,9.27,0,61.67,0"/>
        <path class="cls-3" d="m50.98,107.77c51.18,0,10.49,0,61.67,0"/>
        <path class="cls-3" d="m50.98,103.5c49.95,0,11.72,0,61.67,0"/>
        <path class="cls-3" d="m50.98,99.23c48.73,0,12.94,0,61.67,0"/>
        <path class="cls-3" d="m50.98,94.96c47.5,0,14.17,0,61.67,0"/>
        <path class="cls-3" d="m50.98,90.69c46.28,0,15.39,0,61.67,0"/>
        <path class="cls-3" d="m50.98,86.41c45.05,0,16.62,0,61.67,0"/>
        <path class="cls-3" d="m50.98,82.14c43.83,0,17.84,0,61.67,0"/>
        <path class="cls-3" d="m50.98,77.87c42.6,0,19.07,0,61.67,0"/>
        <path class="cls-3" d="m50.98,73.6c41.38,0,20.29,0,61.67,0"/>
        <path class="cls-3" d="m50.98,69.33c40.15,0,21.52,0,61.67,0"/>
        <path class="cls-3" d="m50.98,65.06c38.93,0,22.74,0,61.67,0"/>
        <path class="cls-3" d="m50.98,60.79c37.7,0,23.97,0,61.67,0"/>
        <path class="cls-3" d="m50.98,56.52c36.48,0,25.19,0,61.67,0"/>
        <path class="cls-3" d="m50.98,52.25c35.26,0,26.42,0,61.67,0"/>
        <path class="cls-3" d="m50.98,47.98c34.03,0,27.64,0,61.67,0"/>
        <path class="cls-3" d="m50.98,43.71c32.81,0,28.87,0,61.67,0"/>
        <path class="cls-3" d="m50.98,39.44c31.58,0,30.09,0,61.67,0"/>
        <path class="cls-3" d="m50.98,35.17c30.36,0,31.32,0,61.67,0"/>
        <path class="cls-3" d="m50.98,30.9c29.13,0,32.54,0,61.67,0"/>
        <path class="cls-3" d="m50.98,26.62c27.91,0,33.77,0,61.67,0"/>
        <path class="cls-3" d="m50.98,22.35c26.68,0,34.99,0,61.67,0"/>
        <path class="cls-3" d="m50.98,18.08c25.46,0,36.21,0,61.67,0"/>
        <path class="cls-3" d="m50.98,13.81c24.23,0,37.44,0,61.67,0"/>
        <path class="cls-3" d="m50.98,9.54c23.01,0,38.66,0,61.67,0"/>
        <path class="cls-3" d="m50.98,5.27c21.78,0,39.89,0,61.67,0"/>
        <path class="cls-3" d="m50.98,1h61.67"/>
      </g>
    </g>
    <path class="cls-2" d="m64.02,88.52c6-15.39,15.33-38.63,21.33-54.02,6,15.06,15.68,38.96,21.68,54.02-6.64,17.1-15.04,36.74-21.68,53.85-5.36-16.77-15.97-37.07-21.33-53.85Z"/>
    <path class="cls-2" d="m122.88,88.52c6-15.39,15.33-38.63,21.33-54.02,6,15.06,15.68,38.96,21.68,54.02-6.64,17.1-15.04,36.74-21.68,53.85-5.36-16.77-15.97-37.07-21.33-53.85Z"/>
    <path class="cls-2" d="m180.8,88.52c6-15.39,15.33-38.63,21.33-54.02,6,15.06,15.68,38.96,21.68,54.02-6.64,17.1-15.04,36.74-21.68,53.85-5.36-16.77-15.97-37.07-21.33-53.85Z"/>
  </g>
</svg>