<?xml version="1.0" encoding="UTF-8"?>
<svg id="Layer_2" data-name="Layer 2" xmlns="http://www.w3.org/2000/svg" xmlns:xlink="http://www.w3.org/1999/xlink" viewBox="0 0 289.11 179.32">
  <defs>
    <style>
      .cls-1, .cls-2, .cls-3 {
        fill: none;
      }

      .cls-2 {
        stroke-width: 3px;
      }

      .cls-2, .cls-4, .cls-3 {
        stroke-miterlimit: 10;
      }

      .cls-2, .cls-3 {
        stroke: #0072bc;
      }

      .cls-5 {
        clip-path: url(#clippath);
      }

      .cls-6 {
        clip-path: url(#clippath-1);
      }

      .cls-7 {
        clip-path: url(#clippath-2);
      }

      .cls-4 {
        fill: #fff;
        stroke: #231f20;
      }

      .cls-3 {
        stroke-width: 2px;
      }
    </style>
    <clipPath id="clippath">
      <path class="cls-1" d="m125.91,117.61v-61.36c1.41-8.73,8.75-15.23,17.26-15.57,9.14-.36,17.39,6.49,18.76,15.91,0,20.8,0,41.61,0,62.41-1.35,8.86-8.54,15.48-16.78,15.98-9.46.58-18.36-7.01-19.23-17.38Z"/>
    </clipPath>
    <clipPath id="clippath-1">
      <path class="cls-1" d="m67.52,116.7v-61.36c1.41-8.73,8.75-15.23,17.26-15.57,9.14-.36,17.39,6.49,18.76,15.91,0,20.8,0,41.61,0,62.41-1.35,8.86-8.54,15.48-16.78,15.98-9.46.58-18.36-7.01-19.23-17.38Z"/>
    </clipPath>
    <clipPath id="clippath-2">
      <path class="cls-1" d="m184.3,116.7v-61.36c1.41-8.73,8.75-15.23,17.26-15.57,9.14-.36,17.39,6.49,18.76,15.91,0,20.8,0,41.61,0,62.41-1.35,8.86-8.54,15.48-16.78,15.98-9.46.58-18.36-7.01-19.23-17.38Z"/>
    </clipPath>
  </defs>
  <g id="BSL3">
    <g id="Layer_88" data-name="Layer 88">
      <rect class="cls-4" x=".5" y=".5" width="288.11" height="178.32" rx="9" ry="9"/>
    </g>
    <g class="cls-5">
      <g>
        <path class="cls-3" d="m112.15,179.35c72,0-10.33,0,61.67,0"/>
        <path class="cls-3" d="m112.15,175.08c70.78,0-9.1,0,61.67,0"/>
        <path class="cls-3" d="m112.15,170.8c69.55,0-7.88,0,61.67,0"/>
        <path class="cls-3" d="m112.15,166.53c68.33,0-6.65,0,61.67,0"/>
        <path class="cls-3" d="m112.15,162.26c67.1,0-5.43,0,61.67,0"/>
        <path class="cls-3" d="m112.15,157.99c65.88,0-4.2,0,61.67,0"/>
        <path class="cls-3" d="m112.15,153.72c64.65,0-2.98,0,61.67,0"/>
        <path class="cls-3" d="m112.15,149.45c63.43,0-1.75,0,61.67,0"/>
        <path class="cls-3" d="m112.15,145.18c62.2,0-.53,0,61.67,0"/>
        <path class="cls-3" d="m112.15,140.91c60.98,0,.69,0,61.67,0"/>
        <path class="cls-3" d="m112.15,136.64c59.75,0,1.92,0,61.67,0"/>
        <path class="cls-3" d="m112.15,132.37c58.53,0,3.14,0,61.67,0"/>
        <path class="cls-3" d="m112.15,128.1c57.3,0,4.37,0,61.67,0"/>
        <path class="cls-3" d="m112.15,123.83c56.08,0,5.59,0,61.67,0"/>
        <path class="cls-3" d="m112.15,119.56c54.85,0,6.82,0,61.67,0"/>
        <path class="cls-3" d="m112.15,115.29c53.63,0,8.04,0,61.67,0"/>
        <path class="cls-3" d="m112.15,111.01c52.4,0,9.27,0,61.67,0"/>
        <path class="cls-3" d="m112.15,106.74c51.18,0,10.49,0,61.67,0"/>
        <path class="cls-3" d="m112.15,102.47c49.95,0,11.72,0,61.67,0"/>
        <path class="cls-3" d="m112.15,98.2c48.73,0,12.94,0,61.67,0"/>
        <path class="cls-3" d="m112.15,93.93c47.5,0,14.17,0,61.67,0"/>
        <path class="cls-3" d="m112.15,89.66c46.28,0,15.39,0,61.67,0"/>
        <path class="cls-3" d="m112.15,85.39c45.05,0,16.62,0,61.67,0"/>
        <path class="cls-3" d="m112.15,81.12c43.83,0,17.84,0,61.67,0"/>
        <path class="cls-3" d="m112.15,76.85c42.6,0,19.07,0,61.67,0"/>
        <path class="cls-3" d="m112.15,72.58c41.38,0,20.29,0,61.67,0"/>
        <path class="cls-3" d="m112.15,68.31c40.15,0,21.52,0,61.67,0"/>
        <path class="cls-3" d="m112.15,64.04c38.93,0,22.74,0,61.67,0"/>
        <path class="cls-3" d="m112.15,59.77c37.7,0,23.97,0,61.67,0"/>
        <path class="cls-3" d="m112.15,55.5c36.48,0,25.19,0,61.67,0"/>
        <path class="cls-3" d="m112.15,51.22c35.26,0,26.42,0,61.67,0"/>
        <path class="cls-3" d="m112.15,46.95c34.03,0,27.64,0,61.67,0"/>
        <path class="cls-3" d="m112.15,42.68c32.81,0,28.87,0,61.67,0"/>
        <path class="cls-3" d="m112.15,38.41c31.58,0,30.09,0,61.67,0"/>
        <path class="cls-3" d="m112.15,34.14c30.36,0,31.32,0,61.67,0"/>
        <path class="cls-3" d="m112.15,29.87c29.13,0,32.54,0,61.67,0"/>
        <path class="cls-3" d="m112.15,25.6c27.91,0,33.77,0,61.67,0"/>
        <path class="cls-3" d="m112.15,21.33c26.68,0,34.99,0,61.67,0"/>
        <path class="cls-3" d="m112.15,17.06c25.46,0,36.21,0,61.67,0"/>
        <path class="cls-3" d="m112.15,12.79c24.23,0,37.44,0,61.67,0"/>
        <path class="cls-3" d="m112.15,8.52c23.01,0,38.66,0,61.67,0"/>
        <path class="cls-3" d="m112.15,4.25c21.78,0,39.89,0,61.67,0"/>
        <path class="cls-3" d="m112.15-.02h61.67"/>
      </g>
    </g>
    <g class="cls-6">
      <g>
        <path class="cls-3" d="m50.98,179.35c72,0-10.33,0,61.67,0"/>
        <path class="cls-3" d="m50.98,175.08c70.78,0-9.1,0,61.67,0"/>
        <path class="cls-3" d="m50.98,170.8c69.55,0-7.88,0,61.67,0"/>
        <path class="cls-3" d="m50.98,166.53c68.33,0-6.65,0,61.67,0"/>
        <path class="cls-3" d="m50.98,162.26c67.1,0-5.43,0,61.67,0"/>
        <path class="cls-3" d="m50.98,157.99c65.88,0-4.2,0,61.67,0"/>
        <path class="cls-3" d="m50.98,153.72c64.65,0-2.98,0,61.67,0"/>
        <path class="cls-3" d="m50.98,149.45c63.43,0-1.75,0,61.67,0"/>
        <path class="cls-3" d="m50.98,145.18c62.2,0-.53,0,61.67,0"/>
        <path class="cls-3" d="m50.98,140.91c60.98,0,.69,0,61.67,0"/>
        <path class="cls-3" d="m50.98,136.64c59.75,0,1.92,0,61.67,0"/>
        <path class="cls-3" d="m50.98,132.37c58.53,0,3.14,0,61.67,0"/>
        <path class="cls-3" d="m50.98,128.1c57.3,0,4.37,0,61.67,0"/>
        <path class="cls-3" d="m50.98,123.83c56.08,0,5.59,0,61.67,0"/>
        <path class="cls-3" d="m50.98,119.56c54.85,0,6.82,0,61.67,0"/>
        <path class="cls-3" d="m50.98,115.29c53.63,0,8.04,0,61.67,0"/>
        <path class="cls-3" d="m50.98,111.01c52.4,0,9.27,0,61.67,0"/>
        <path class="cls-3" d="m50.98,106.74c51.18,0,10.49,0,61.67,0"/>
        <path class="cls-3" d="m50.98,102.47c49.95,0,11.72,0,61.67,0"/>
        <path class="cls-3" d="m50.98,98.2c48.73,0,12.94,0,61.67,0"/>
        <path class="cls-3" d="m50.98,93.93c47.5,0,14.17,0,61.67,0"/>
        <path class="cls-3" d="m50.98,89.66c46.28,0,15.39,0,61.67,0"/>
        <path class="cls-3" d="m50.98,85.39c45.05,0,16.62,0,61.67,0"/>
        <path class="cls-3" d="m50.98,81.12c43.83,0,17.84,0,61.67,0"/>
        <path class="cls-3" d="m50.98,76.85c42.6,0,19.07,0,61.67,0"/>
        <path class="cls-3" d="m50.98,72.58c41.38,0,20.29,0,61.67,0"/>
        <path class="cls-3" d="m50.98,68.31c40.15,0,21.52,0,61.67,0"/>
        <path class="cls-3" d="m50.98,64.04c38.93,0,22.74,0,61.67,0"/>
        <path class="cls-3" d="m50.98,59.77c37.7,0,23.97,0,61.67,0"/>
        <path class="cls-3" d="m50.98,55.5c36.48,0,25.19,0,61.67,0"/>
        <path class="cls-3" d="m50.98,51.22c35.26,0,26.42,0,61.67,0"/>
        <path class="cls-3" d="m50.98,46.95c34.03,0,27.64,0,61.67,0"/>
        <path class="cls-3" d="m50.98,42.68c32.81,0,28.87,0,61.67,0"/>
        <path class="cls-3" d="m50.98,38.41c31.58,0,30.09,0,61.67,0"/>
        <path class="cls-3" d="m50.98,34.14c30.36,0,31.32,0,61.67,0"/>
        <path class="cls-3" d="m50.98,29.87c29.13,0,32.54,0,61.67,0"/>
        <path class="cls-3" d="m50.98,25.6c27.91,0,33.77,0,61.67,0"/>
        <path class="cls-3" d="m50.98,21.33c26.68,0,34.99,0,61.67,0"/>
        <path class="cls-3" d="m50.98,17.06c25.46,0,36.21,0,61.67,0"/>
        <path class="cls-3" d="m50.98,12.79c24.23,0,37.44,0,61.67,0"/>
        <path class="cls-3" d="m50.98,8.52c23.01,0,38.66,0,61.67,0"/>
        <path class="cls-3" d="m50.98,4.25c21.78,0,39.89,0,61.67,0"/>
        <path class="cls-3" d="m50.98-.02h61.67"/>
      </g>
    </g>
    <g class="cls-7">
      <g>
        <path class="cls-3" d="m173.82,179.35c72,0-10.33,0,61.67,0"/>
        <path class="cls-3" d="m173.82,175.08c70.78,0-9.1,0,61.67,0"/>
        <path class="cls-3" d="m173.82,170.8c69.55,0-7.88,0,61.67,0"/>
        <path class="cls-3" d="m173.82,166.53c68.33,0-6.65,0,61.67,0"/>
        <path class="cls-3" d="m173.82,162.26c67.1,0-5.43,0,61.67,0"/>
        <path class="cls-3" d="m173.82,157.99c65.88,0-4.2,0,61.67,0"/>
        <path class="cls-3" d="m173.82,153.72c64.65,0-2.98,0,61.67,0"/>
        <path class="cls-3" d="m173.82,149.45c63.43,0-1.75,0,61.67,0"/>
        <path class="cls-3" d="m173.82,145.18c62.2,0-.53,0,61.67,0"/>
        <path class="cls-3" d="m173.82,140.91c60.98,0,.69,0,61.67,0"/>
        <path class="cls-3" d="m173.82,136.64c59.75,0,1.92,0,61.67,0"/>
        <path class="cls-3" d="m173.82,132.37c58.53,0,3.14,0,61.67,0"/>
        <path class="cls-3" d="m173.82,128.1c57.3,0,4.37,0,61.67,0"/>
        <path class="cls-3" d="m173.82,123.83c56.08,0,5.59,0,61.67,0"/>
        <path class="cls-3" d="m173.82,119.56c54.85,0,6.82,0,61.67,0"/>
        <path class="cls-3" d="m173.82,115.29c53.63,0,8.04,0,61.67,0"/>
        <path class="cls-3" d="m173.82,111.01c52.4,0,9.27,0,61.67,0"/>
        <path class="cls-3" d="m173.82,106.74c51.18,0,10.49,0,61.67,0"/>
        <path class="cls-3" d="m173.82,102.47c49.95,0,11.72,0,61.67,0"/>
        <path class="cls-3" d="m173.82,98.2c48.73,0,12.94,0,61.67,0"/>
        <path class="cls-3" d="m173.82,93.93c47.5,0,14.17,0,61.67,0"/>
        <path class="cls-3" d="m173.82,89.66c46.28,0,15.39,0,61.67,0"/>
        <path class="cls-3" d="m173.82,85.39c45.05,0,16.62,0,61.67,0"/>
        <path class="cls-3" d="m173.82,81.12c43.83,0,17.84,0,61.67,0"/>
        <path class="cls-3" d="m173.82,76.85c42.6,0,19.07,0,61.67,0"/>
        <path class="cls-3" d="m173.82,72.58c41.38,0,20.29,0,61.67,0"/>
        <path class="cls-3" d="m173.82,68.31c40.15,0,21.52,0,61.67,0"/>
        <path class="cls-3" d="m173.82,64.04c38.93,0,22.74,0,61.67,0"/>
        <path class="cls-3" d="m173.82,59.77c37.7,0,23.97,0,61.67,0"/>
        <path class="cls-3" d="m173.82,55.5c36.48,0,25.19,0,61.67,0"/>
        <path class="cls-3" d="m173.82,51.22c35.26,0,26.42,0,61.67,0"/>
        <path class="cls-3" d="m173.82,46.95c34.03,0,27.64,0,61.67,0"/>
        <path class="cls-3" d="m173.82,42.68c32.81,0,28.87,0,61.67,0"/>
        <path class="cls-3" d="m173.82,38.41c31.58,0,30.09,0,61.67,0"/>
        <path class="cls-3" d="m173.82,34.14c30.36,0,31.32,0,61.67,0"/>
        <path class="cls-3" d="m173.82,29.87c29.13,0,32.54,0,61.67,0"/>
        <path class="cls-3" d="m173.82,25.6c27.91,0,33.77,0,61.67,0"/>
        <path class="cls-3" d="m173.82,21.33c26.68,0,34.99,0,61.67,0"/>
        <path class="cls-3" d="m173.82,17.06c25.46,0,36.21,0,61.67,0"/>
        <path class="cls-3" d="m173.82,12.79c24.23,0,37.44,0,61.67,0"/>
        <path class="cls-3" d="m173.82,8.52c23.01,0,38.66,0,61.67,0"/>
        <path class="cls-3" d="m173.82,4.25c21.78,0,39.89,0,61.67,0"/>
        <path class="cls-3" d="m173.82-.02h61.67"/>
      </g>
    </g>
    <path class="cls-2" d="m67.52,116.7v-61.36c1.41-8.73,8.75-15.23,17.26-15.57,9.14-.36,17.39,6.49,18.76,15.91,0,20.8,0,41.61,0,62.41-1.35,8.86-8.54,15.48-16.78,15.98-9.46.58-18.36-7.01-19.23-17.38Z"/>
    <path class="cls-2" d="m125.91,117.61v-61.36c1.41-8.73,8.75-15.23,17.26-15.57,9.14-.36,17.39,6.49,18.76,15.91,0,20.8,0,41.61,0,62.41-1.35,8.86-8.54,15.48-16.78,15.98-9.46.58-18.36-7.01-19.23-17.38Z"/>
    <path class="cls-2" d="m184.3,116.7v-61.36c1.41-8.73,8.75-15.23,17.26-15.57,9.14-.36,17.39,6.49,18.76,15.91,0,20.8,0,41.61,0,62.41-1.35,8.86-8.54,15.48-16.78,15.98-9.46.58-18.36-7.01-19.23-17.38Z"/>
  </g>
</svg>