<?xml version="1.0" encoding="iso-8859-1"?>
<!-- Generator: Adobe Illustrator 27.4.1, SVG Export Plug-In . SVG Version: 6.00 Build 0)  -->
<svg version="1.1" xmlns="http://www.w3.org/2000/svg" xmlns:xlink="http://www.w3.org/1999/xlink" x="0px" y="0px"
	 viewBox="0 0 289.112 179.322" style="enable-background:new 0 0 289.112 179.322;" xml:space="preserve">
<g id="GFQ3">
	<path style="fill:#FFFFFF;stroke:#000000;stroke-miterlimit:10;" d="M279.612,178.822H9.5c-4.971,0-9-4.029-9-9V9.5
		c0-4.971,4.029-9,9-9h270.112c4.971,0,9,4.029,9,9v160.322C288.612,174.792,284.582,178.822,279.612,178.822z"/>
	<path style="fill:#00A651;stroke:#000000;stroke-width:3;stroke-miterlimit:10;" d="M162.081,87.103
		c-0.098,8.624-2.873,18.619-6.123,27.187c-5.769,15.21,6.119,22.203,0,27.098c-4.371,3.497-17.814-13.709-24.126-27.098
		c-5.769-12.238-5.912-21.123-5.766-27.187c0.207-8.579,2.299-17.517,5.766-26.834c5.594-15.035-5.732-22.502,0-26.748
		c4.72-3.497,16.815,12.344,24.126,26.748C161.889,71.953,162.109,84.612,162.081,87.103z"/>
	<path style="fill:#00A651;stroke:#000000;stroke-width:3;stroke-miterlimit:10;" d="M220.329,87.071
		c-0.098,8.624-2.873,18.619-6.123,27.187c-5.769,15.21,6.119,22.203,0,27.098c-4.371,3.497-17.814-13.709-24.126-27.098
		c-5.769-12.238-5.912-21.123-5.766-27.187c0.207-8.579,2.299-17.517,5.766-26.834c5.594-15.035-5.732-22.502,0-26.748
		c4.72-3.497,16.815,12.344,24.126,26.748C220.137,71.921,220.358,84.58,220.329,87.071z"/>
	<path style="fill:#00A651;stroke:#000000;stroke-width:3;stroke-miterlimit:10;" d="M103.546,86.596
		c-0.098,8.624-2.873,18.619-6.123,27.187c-5.769,15.21,6.119,22.203,0,27.098c-4.371,3.497-17.814-13.709-24.126-27.098
		c-5.769-12.238-5.912-21.123-5.766-27.187c0.207-8.579,2.299-17.517,5.766-26.834c5.594-15.035-5.732-22.502,0-26.748
		c4.72-3.497,16.815,12.344,24.126,26.748C103.354,71.447,103.574,84.105,103.546,86.596z"/>
</g>
<g id="Layer_1">
</g>
</svg>
