<?xml version="1.0" encoding="iso-8859-1"?>
<!-- Generator: Adobe Illustrator 27.4.1, SVG Export Plug-In . SVG Version: 6.00 Build 0)  -->
<svg version="1.1" xmlns="http://www.w3.org/2000/svg" xmlns:xlink="http://www.w3.org/1999/xlink" x="0px" y="0px"
	 viewBox="0 0 289.112 179.322" style="enable-background:new 0 0 289.112 179.322;" xml:space="preserve">
<g id="GOD3">
	<path style="fill:#FFFFFF;stroke:#000000;stroke-miterlimit:10;" d="M279.612,178.822H9.5c-4.971,0-9-4.029-9-9V9.5
		c0-4.971,4.029-9,9-9h270.112c4.971,0,9,4.029,9,9v160.322C288.612,174.792,284.582,178.822,279.612,178.822z"/>
	<path style="fill:none;stroke:#00A651;stroke-width:3;stroke-miterlimit:10;" d="M122.883,87.493
		c6.002-15.394,15.327-38.627,21.329-54.021c6.001,15.065,15.677,38.956,21.678,54.021c-6.642,17.103-15.036,36.743-21.678,53.846
		C138.851,124.566,128.244,104.267,122.883,87.493z"/>
	<path style="fill:none;stroke:#00A651;stroke-width:3;stroke-miterlimit:10;" d="M180.804,87.493
		c6.002-15.394,15.327-38.627,21.329-54.021c6.001,15.065,15.677,38.956,21.678,54.021c-6.642,17.103-15.036,36.743-21.678,53.846
		C196.772,124.566,186.165,104.267,180.804,87.493z"/>
	<path style="fill:none;stroke:#00A651;stroke-width:3;stroke-miterlimit:10;" d="M64.021,87.493
		c6.002-15.394,15.327-38.627,21.329-54.021c6.001,15.065,15.677,38.956,21.678,54.021c-6.642,17.103-15.036,36.743-21.678,53.846
		C79.989,124.566,69.382,104.267,64.021,87.493z"/>
</g>
<g id="Layer_1">
</g>
</svg>
