<?xml version="1.0" encoding="UTF-8"?>
<svg id="Layer_1" data-name="Layer 1" xmlns="http://www.w3.org/2000/svg" viewBox="0 0 289.11 179.32">
  <defs>
    <style>
      .cls-1 {
        fill: none;
        stroke: #00a651;
        stroke-width: 3px;
      }

      .cls-1, .cls-2 {
        stroke-miterlimit: 10;
      }

      .cls-2 {
        fill: #fff;
        stroke: #231f20;
      }
    </style>
  </defs>
  <rect class="cls-2" x=".5" y=".5" width="288.11" height="178.32" rx="9" ry="9"/>
  <path class="cls-1" d="m162.08,87.1c-.1,8.62-2.87,18.62-6.12,27.19-5.77,15.21,6.12,22.2,0,27.1-4.37,3.5-17.81-13.71-24.13-27.1-5.77-12.24-5.91-21.12-5.77-27.19.21-8.58,2.3-17.52,5.77-26.83,5.59-15.03-5.73-22.5,0-26.75,4.72-3.5,16.81,12.34,24.13,26.75,5.93,11.68,6.15,24.34,6.12,26.83Z"/>
  <path class="cls-1" d="m220.33,87.07c-.1,8.62-2.87,18.62-6.12,27.19-5.77,15.21,6.12,22.2,0,27.1-4.37,3.5-17.81-13.71-24.13-27.1-5.77-12.24-5.91-21.12-5.77-27.19.21-8.58,2.3-17.52,5.77-26.83,5.59-15.03-5.73-22.5,0-26.75,4.72-3.5,16.81,12.34,24.13,26.75,5.93,11.68,6.15,24.34,6.12,26.83Z"/>
  <path class="cls-1" d="m103.55,86.6c-.1,8.62-2.87,18.62-6.12,27.19-5.77,15.21,6.12,22.2,0,27.1-4.37,3.5-17.81-13.71-24.13-27.1-5.77-12.24-5.91-21.12-5.77-27.19.21-8.58,2.3-17.52,5.77-26.83,5.59-15.03-5.73-22.5,0-26.75,4.72-3.5,16.81,12.34,24.13,26.75,5.93,11.68,6.15,24.34,6.12,26.83Z"/>
</svg>