<?xml version="1.0" encoding="iso-8859-1"?>
<!-- Generator: Adobe Illustrator 27.4.1, SVG Export Plug-In . SVG Version: 6.00 Build 0)  -->
<svg version="1.1" xmlns="http://www.w3.org/2000/svg" xmlns:xlink="http://www.w3.org/1999/xlink" x="0px" y="0px"
	 viewBox="0 0 289.112 181.371" style="enable-background:new 0 0 289.112 181.371;" xml:space="preserve">
<g id="RSD3">
	<path style="fill:#FFFFFF;stroke:#000000;stroke-miterlimit:10;" d="M279.612,179.846H9.5c-4.971,0-9-4.029-9-9V10.524
		c0-4.971,4.029-9,9-9h270.112c4.971,0,9,4.029,9,9v160.322C288.612,175.817,284.582,179.846,279.612,179.846z"/>
	<g>
		<defs>
			<path id="SVGID_1_" d="M122.883,88.518c6.002-15.394,15.327-38.627,21.329-54.021c6.001,15.065,15.677,38.956,21.678,54.021
				c-6.642,17.103-15.036,36.743-21.678,53.846C138.851,125.59,128.244,105.292,122.883,88.518z"/>
		</defs>
		<clipPath id="SVGID_00000155855239034561228660000004531201535684643731_">
			<use xlink:href="#SVGID_1_"  style="overflow:visible;"/>
		</clipPath>
		<g style="clip-path:url(#SVGID_00000155855239034561228660000004531201535684643731_);">
			<path style="fill:none;stroke:#ED1C24;stroke-width:2;stroke-miterlimit:10;" d="M112.15,180.371c72,0-10.329,0,61.671,0"/>
			<path style="fill:none;stroke:#ED1C24;stroke-width:2;stroke-miterlimit:10;" d="M112.15,176.1c70.775,0-9.104,0,61.671,0"/>
			<path style="fill:none;stroke:#ED1C24;stroke-width:2;stroke-miterlimit:10;" d="M112.15,171.829c69.55,0-7.879,0,61.671,0"/>
			<path style="fill:none;stroke:#ED1C24;stroke-width:2;stroke-miterlimit:10;" d="M112.15,167.558c68.326,0-6.654,0,61.671,0"/>
			<path style="fill:none;stroke:#ED1C24;stroke-width:2;stroke-miterlimit:10;" d="M112.15,163.288c67.101,0-5.429,0,61.671,0"/>
			<path style="fill:none;stroke:#ED1C24;stroke-width:2;stroke-miterlimit:10;" d="M112.15,159.017c65.876,0-4.205,0,61.671,0"/>
			<path style="fill:none;stroke:#ED1C24;stroke-width:2;stroke-miterlimit:10;" d="M112.15,154.746c64.651,0-2.98,0,61.671,0"/>
			<path style="fill:none;stroke:#ED1C24;stroke-width:2;stroke-miterlimit:10;" d="M112.15,150.476c63.426,0-1.755,0,61.671,0"/>
			<path style="fill:none;stroke:#ED1C24;stroke-width:2;stroke-miterlimit:10;" d="M112.15,146.205c62.201,0-0.53,0,61.671,0"/>
			<path style="fill:none;stroke:#ED1C24;stroke-width:2;stroke-miterlimit:10;" d="M112.15,141.934c60.977,0,0.695,0,61.671,0"/>
			<path style="fill:none;stroke:#ED1C24;stroke-width:2;stroke-miterlimit:10;" d="M112.15,137.663c59.752,0,1.92,0,61.671,0"/>
			<path style="fill:none;stroke:#ED1C24;stroke-width:2;stroke-miterlimit:10;" d="M112.15,133.393c58.527,0,3.144,0,61.671,0"/>
			<path style="fill:none;stroke:#ED1C24;stroke-width:2;stroke-miterlimit:10;" d="M112.15,129.122c57.302,0,4.369,0,61.671,0"/>
			<path style="fill:none;stroke:#ED1C24;stroke-width:2;stroke-miterlimit:10;" d="M112.15,124.851c56.077,0,5.594,0,61.671,0"/>
			<path style="fill:none;stroke:#ED1C24;stroke-width:2;stroke-miterlimit:10;" d="M112.15,120.58c54.852,0,6.819,0,61.671,0"/>
			<path style="fill:none;stroke:#ED1C24;stroke-width:2;stroke-miterlimit:10;" d="M112.15,116.31c53.628,0,8.044,0,61.671,0"/>
			<path style="fill:none;stroke:#ED1C24;stroke-width:2;stroke-miterlimit:10;" d="M112.15,112.039c52.403,0,9.269,0,61.671,0"/>
			<path style="fill:none;stroke:#ED1C24;stroke-width:2;stroke-miterlimit:10;" d="M112.15,107.768c51.178,0,10.493,0,61.671,0"/>
			<path style="fill:none;stroke:#ED1C24;stroke-width:2;stroke-miterlimit:10;" d="M112.15,103.497c49.953,0,11.718,0,61.671,0"/>
			<path style="fill:none;stroke:#ED1C24;stroke-width:2;stroke-miterlimit:10;" d="M112.15,99.227c48.728,0,12.943,0,61.671,0"/>
			<path style="fill:none;stroke:#ED1C24;stroke-width:2;stroke-miterlimit:10;" d="M112.15,94.956c47.503,0,14.168,0,61.671,0"/>
			<path style="fill:none;stroke:#ED1C24;stroke-width:2;stroke-miterlimit:10;" d="M112.15,90.685c46.279,0,15.393,0,61.671,0"/>
			<path style="fill:none;stroke:#ED1C24;stroke-width:2;stroke-miterlimit:10;" d="M112.15,86.415c45.054,0,16.618,0,61.671,0"/>
			<path style="fill:none;stroke:#ED1C24;stroke-width:2;stroke-miterlimit:10;" d="M112.15,82.144c43.829,0,17.842,0,61.671,0"/>
			<path style="fill:none;stroke:#ED1C24;stroke-width:2;stroke-miterlimit:10;" d="M112.15,77.873c42.604,0,19.067,0,61.671,0"/>
			<path style="fill:none;stroke:#ED1C24;stroke-width:2;stroke-miterlimit:10;" d="M112.15,73.602c41.379,0,20.292,0,61.671,0"/>
			<path style="fill:none;stroke:#ED1C24;stroke-width:2;stroke-miterlimit:10;" d="M112.15,69.332c40.154,0,21.517,0,61.671,0"/>
			<path style="fill:none;stroke:#ED1C24;stroke-width:2;stroke-miterlimit:10;" d="M112.15,65.061c38.93,0,22.742,0,61.671,0"/>
			<path style="fill:none;stroke:#ED1C24;stroke-width:2;stroke-miterlimit:10;" d="M112.15,60.79c37.705,0,23.967,0,61.671,0"/>
			<path style="fill:none;stroke:#ED1C24;stroke-width:2;stroke-miterlimit:10;" d="M112.15,56.519c36.48,0,25.191,0,61.671,0"/>
			<path style="fill:none;stroke:#ED1C24;stroke-width:2;stroke-miterlimit:10;" d="M112.15,52.249c35.255,0,26.416,0,61.671,0"/>
			<path style="fill:none;stroke:#ED1C24;stroke-width:2;stroke-miterlimit:10;" d="M112.15,47.978c34.03,0,27.641,0,61.671,0"/>
			<path style="fill:none;stroke:#ED1C24;stroke-width:2;stroke-miterlimit:10;" d="M112.15,43.707c32.805,0,28.866,0,61.671,0"/>
			<path style="fill:none;stroke:#ED1C24;stroke-width:2;stroke-miterlimit:10;" d="M112.15,39.437c31.581,0,30.091,0,61.671,0"/>
			<path style="fill:none;stroke:#ED1C24;stroke-width:2;stroke-miterlimit:10;" d="M112.15,35.166c30.356,0,31.316,0,61.671,0"/>
			<path style="fill:none;stroke:#ED1C24;stroke-width:2;stroke-miterlimit:10;" d="M112.15,30.895c29.131,0,32.54,0,61.671,0"/>
			<path style="fill:none;stroke:#ED1C24;stroke-width:2;stroke-miterlimit:10;" d="M112.15,26.624c27.906,0,33.765,0,61.671,0"/>
			<path style="fill:none;stroke:#ED1C24;stroke-width:2;stroke-miterlimit:10;" d="M112.15,22.354c26.681,0,34.99,0,61.671,0"/>
			<path style="fill:none;stroke:#ED1C24;stroke-width:2;stroke-miterlimit:10;" d="M112.15,18.083c25.456,0,36.215,0,61.671,0"/>
			<path style="fill:none;stroke:#ED1C24;stroke-width:2;stroke-miterlimit:10;" d="M112.15,13.812c24.232,0,37.44,0,61.671,0"/>
			<path style="fill:none;stroke:#ED1C24;stroke-width:2;stroke-miterlimit:10;" d="M112.15,9.541c23.007,0,38.665,0,61.671,0"/>
			<path style="fill:none;stroke:#ED1C24;stroke-width:2;stroke-miterlimit:10;" d="M112.15,5.271c21.782,0,39.889,0,61.671,0"/>
			<path style="fill:none;stroke:#ED1C24;stroke-width:2;stroke-miterlimit:10;" d="M112.15,1c20.557,0,41.114,0,61.671,0"/>
		</g>
	</g>
	<g>
		<defs>
			<path id="SVGID_00000001623563680296389430000004792352188774705314_" d="M180.804,88.518
				c6.002-15.394,15.327-38.627,21.329-54.021c6.001,15.065,15.677,38.956,21.678,54.021c-6.642,17.103-15.036,36.743-21.678,53.846
				C196.772,125.59,186.165,105.292,180.804,88.518z"/>
		</defs>
		<clipPath id="SVGID_00000001627702827062129820000011134034464172889788_">
			<use xlink:href="#SVGID_00000001623563680296389430000004792352188774705314_"  style="overflow:visible;"/>
		</clipPath>
		<g style="clip-path:url(#SVGID_00000001627702827062129820000011134034464172889788_);">
			<path style="fill:none;stroke:#ED1C24;stroke-width:2;stroke-miterlimit:10;" d="M173.822,180.371c72,0-10.329,0,61.671,0"/>
			<path style="fill:none;stroke:#ED1C24;stroke-width:2;stroke-miterlimit:10;" d="M173.822,176.1c70.775,0-9.104,0,61.671,0"/>
			<path style="fill:none;stroke:#ED1C24;stroke-width:2;stroke-miterlimit:10;" d="M173.822,171.829c69.55,0-7.879,0,61.671,0"/>
			<path style="fill:none;stroke:#ED1C24;stroke-width:2;stroke-miterlimit:10;" d="M173.822,167.558c68.326,0-6.654,0,61.671,0"/>
			<path style="fill:none;stroke:#ED1C24;stroke-width:2;stroke-miterlimit:10;" d="M173.822,163.288c67.101,0-5.429,0,61.671,0"/>
			<path style="fill:none;stroke:#ED1C24;stroke-width:2;stroke-miterlimit:10;" d="M173.822,159.017c65.876,0-4.205,0,61.671,0"/>
			<path style="fill:none;stroke:#ED1C24;stroke-width:2;stroke-miterlimit:10;" d="M173.822,154.746c64.651,0-2.98,0,61.671,0"/>
			<path style="fill:none;stroke:#ED1C24;stroke-width:2;stroke-miterlimit:10;" d="M173.822,150.476c63.426,0-1.755,0,61.671,0"/>
			<path style="fill:none;stroke:#ED1C24;stroke-width:2;stroke-miterlimit:10;" d="M173.822,146.205c62.201,0-0.53,0,61.671,0"/>
			<path style="fill:none;stroke:#ED1C24;stroke-width:2;stroke-miterlimit:10;" d="M173.822,141.934c60.977,0,0.695,0,61.671,0"/>
			<path style="fill:none;stroke:#ED1C24;stroke-width:2;stroke-miterlimit:10;" d="M173.822,137.663c59.752,0,1.92,0,61.671,0"/>
			<path style="fill:none;stroke:#ED1C24;stroke-width:2;stroke-miterlimit:10;" d="M173.822,133.393c58.527,0,3.144,0,61.671,0"/>
			<path style="fill:none;stroke:#ED1C24;stroke-width:2;stroke-miterlimit:10;" d="M173.822,129.122c57.302,0,4.369,0,61.671,0"/>
			<path style="fill:none;stroke:#ED1C24;stroke-width:2;stroke-miterlimit:10;" d="M173.822,124.851c56.077,0,5.594,0,61.671,0"/>
			<path style="fill:none;stroke:#ED1C24;stroke-width:2;stroke-miterlimit:10;" d="M173.822,120.58c54.852,0,6.819,0,61.671,0"/>
			<path style="fill:none;stroke:#ED1C24;stroke-width:2;stroke-miterlimit:10;" d="M173.822,116.31c53.628,0,8.044,0,61.671,0"/>
			<path style="fill:none;stroke:#ED1C24;stroke-width:2;stroke-miterlimit:10;" d="M173.822,112.039c52.403,0,9.269,0,61.671,0"/>
			<path style="fill:none;stroke:#ED1C24;stroke-width:2;stroke-miterlimit:10;" d="M173.822,107.768c51.178,0,10.493,0,61.671,0"/>
			<path style="fill:none;stroke:#ED1C24;stroke-width:2;stroke-miterlimit:10;" d="M173.822,103.497c49.953,0,11.718,0,61.671,0"/>
			<path style="fill:none;stroke:#ED1C24;stroke-width:2;stroke-miterlimit:10;" d="M173.822,99.227c48.728,0,12.943,0,61.671,0"/>
			<path style="fill:none;stroke:#ED1C24;stroke-width:2;stroke-miterlimit:10;" d="M173.822,94.956c47.503,0,14.168,0,61.671,0"/>
			<path style="fill:none;stroke:#ED1C24;stroke-width:2;stroke-miterlimit:10;" d="M173.822,90.685c46.279,0,15.393,0,61.671,0"/>
			<path style="fill:none;stroke:#ED1C24;stroke-width:2;stroke-miterlimit:10;" d="M173.822,86.415c45.054,0,16.618,0,61.671,0"/>
			<path style="fill:none;stroke:#ED1C24;stroke-width:2;stroke-miterlimit:10;" d="M173.822,82.144c43.829,0,17.842,0,61.671,0"/>
			<path style="fill:none;stroke:#ED1C24;stroke-width:2;stroke-miterlimit:10;" d="M173.822,77.873c42.604,0,19.067,0,61.671,0"/>
			<path style="fill:none;stroke:#ED1C24;stroke-width:2;stroke-miterlimit:10;" d="M173.822,73.602c41.379,0,20.292,0,61.671,0"/>
			<path style="fill:none;stroke:#ED1C24;stroke-width:2;stroke-miterlimit:10;" d="M173.822,69.332c40.154,0,21.517,0,61.671,0"/>
			<path style="fill:none;stroke:#ED1C24;stroke-width:2;stroke-miterlimit:10;" d="M173.822,65.061c38.93,0,22.742,0,61.671,0"/>
			<path style="fill:none;stroke:#ED1C24;stroke-width:2;stroke-miterlimit:10;" d="M173.822,60.79c37.705,0,23.967,0,61.671,0"/>
			<path style="fill:none;stroke:#ED1C24;stroke-width:2;stroke-miterlimit:10;" d="M173.822,56.519c36.48,0,25.191,0,61.671,0"/>
			<path style="fill:none;stroke:#ED1C24;stroke-width:2;stroke-miterlimit:10;" d="M173.822,52.249c35.255,0,26.416,0,61.671,0"/>
			<path style="fill:none;stroke:#ED1C24;stroke-width:2;stroke-miterlimit:10;" d="M173.822,47.978c34.03,0,27.641,0,61.671,0"/>
			<path style="fill:none;stroke:#ED1C24;stroke-width:2;stroke-miterlimit:10;" d="M173.822,43.707c32.805,0,28.866,0,61.671,0"/>
			<path style="fill:none;stroke:#ED1C24;stroke-width:2;stroke-miterlimit:10;" d="M173.822,39.437c31.581,0,30.091,0,61.671,0"/>
			<path style="fill:none;stroke:#ED1C24;stroke-width:2;stroke-miterlimit:10;" d="M173.822,35.166c30.356,0,31.316,0,61.671,0"/>
			<path style="fill:none;stroke:#ED1C24;stroke-width:2;stroke-miterlimit:10;" d="M173.822,30.895c29.131,0,32.54,0,61.671,0"/>
			<path style="fill:none;stroke:#ED1C24;stroke-width:2;stroke-miterlimit:10;" d="M173.822,26.624c27.906,0,33.765,0,61.671,0"/>
			<path style="fill:none;stroke:#ED1C24;stroke-width:2;stroke-miterlimit:10;" d="M173.822,22.354c26.681,0,34.99,0,61.671,0"/>
			<path style="fill:none;stroke:#ED1C24;stroke-width:2;stroke-miterlimit:10;" d="M173.822,18.083c25.456,0,36.215,0,61.671,0"/>
			<path style="fill:none;stroke:#ED1C24;stroke-width:2;stroke-miterlimit:10;" d="M173.822,13.812c24.232,0,37.44,0,61.671,0"/>
			<path style="fill:none;stroke:#ED1C24;stroke-width:2;stroke-miterlimit:10;" d="M173.822,9.541c23.007,0,38.665,0,61.671,0"/>
			<path style="fill:none;stroke:#ED1C24;stroke-width:2;stroke-miterlimit:10;" d="M173.822,5.271c21.782,0,39.889,0,61.671,0"/>
			<path style="fill:none;stroke:#ED1C24;stroke-width:2;stroke-miterlimit:10;" d="M173.822,1c20.557,0,41.114,0,61.671,0"/>
		</g>
	</g>
	<g>
		<defs>
			<path id="SVGID_00000093876396619699353640000009496652416743052475_" d="M64.021,88.518
				c6.002-15.394,15.327-38.627,21.329-54.021c6.001,15.065,15.677,38.956,21.678,54.021c-6.642,17.103-15.036,36.743-21.678,53.846
				C79.989,125.59,69.382,105.292,64.021,88.518z"/>
		</defs>
		<clipPath id="SVGID_00000008871294256706085320000013672139414882593424_">
			<use xlink:href="#SVGID_00000093876396619699353640000009496652416743052475_"  style="overflow:visible;"/>
		</clipPath>
		<g style="clip-path:url(#SVGID_00000008871294256706085320000013672139414882593424_);">
			<path style="fill:none;stroke:#ED1C24;stroke-width:2;stroke-miterlimit:10;" d="M50.983,180.371c72,0-10.329,0,61.671,0"/>
			<path style="fill:none;stroke:#ED1C24;stroke-width:2;stroke-miterlimit:10;" d="M50.983,176.1c70.775,0-9.104,0,61.671,0"/>
			<path style="fill:none;stroke:#ED1C24;stroke-width:2;stroke-miterlimit:10;" d="M50.983,171.829c69.55,0-7.879,0,61.671,0"/>
			<path style="fill:none;stroke:#ED1C24;stroke-width:2;stroke-miterlimit:10;" d="M50.983,167.558c68.326,0-6.654,0,61.671,0"/>
			<path style="fill:none;stroke:#ED1C24;stroke-width:2;stroke-miterlimit:10;" d="M50.983,163.288c67.101,0-5.429,0,61.671,0"/>
			<path style="fill:none;stroke:#ED1C24;stroke-width:2;stroke-miterlimit:10;" d="M50.983,159.017c65.876,0-4.205,0,61.671,0"/>
			<path style="fill:none;stroke:#ED1C24;stroke-width:2;stroke-miterlimit:10;" d="M50.983,154.746c64.651,0-2.98,0,61.671,0"/>
			<path style="fill:none;stroke:#ED1C24;stroke-width:2;stroke-miterlimit:10;" d="M50.983,150.476c63.426,0-1.755,0,61.671,0"/>
			<path style="fill:none;stroke:#ED1C24;stroke-width:2;stroke-miterlimit:10;" d="M50.983,146.205c62.201,0-0.53,0,61.671,0"/>
			<path style="fill:none;stroke:#ED1C24;stroke-width:2;stroke-miterlimit:10;" d="M50.983,141.934c60.977,0,0.695,0,61.671,0"/>
			<path style="fill:none;stroke:#ED1C24;stroke-width:2;stroke-miterlimit:10;" d="M50.983,137.663c59.752,0,1.92,0,61.671,0"/>
			<path style="fill:none;stroke:#ED1C24;stroke-width:2;stroke-miterlimit:10;" d="M50.983,133.393c58.527,0,3.144,0,61.671,0"/>
			<path style="fill:none;stroke:#ED1C24;stroke-width:2;stroke-miterlimit:10;" d="M50.983,129.122c57.302,0,4.369,0,61.671,0"/>
			<path style="fill:none;stroke:#ED1C24;stroke-width:2;stroke-miterlimit:10;" d="M50.983,124.851c56.077,0,5.594,0,61.671,0"/>
			<path style="fill:none;stroke:#ED1C24;stroke-width:2;stroke-miterlimit:10;" d="M50.983,120.58c54.852,0,6.819,0,61.671,0"/>
			<path style="fill:none;stroke:#ED1C24;stroke-width:2;stroke-miterlimit:10;" d="M50.983,116.31c53.628,0,8.044,0,61.671,0"/>
			<path style="fill:none;stroke:#ED1C24;stroke-width:2;stroke-miterlimit:10;" d="M50.983,112.039c52.403,0,9.269,0,61.671,0"/>
			<path style="fill:none;stroke:#ED1C24;stroke-width:2;stroke-miterlimit:10;" d="M50.983,107.768c51.178,0,10.493,0,61.671,0"/>
			<path style="fill:none;stroke:#ED1C24;stroke-width:2;stroke-miterlimit:10;" d="M50.983,103.497c49.953,0,11.718,0,61.671,0"/>
			<path style="fill:none;stroke:#ED1C24;stroke-width:2;stroke-miterlimit:10;" d="M50.983,99.227c48.728,0,12.943,0,61.671,0"/>
			<path style="fill:none;stroke:#ED1C24;stroke-width:2;stroke-miterlimit:10;" d="M50.983,94.956c47.503,0,14.168,0,61.671,0"/>
			<path style="fill:none;stroke:#ED1C24;stroke-width:2;stroke-miterlimit:10;" d="M50.983,90.685c46.279,0,15.393,0,61.671,0"/>
			<path style="fill:none;stroke:#ED1C24;stroke-width:2;stroke-miterlimit:10;" d="M50.983,86.415c45.054,0,16.618,0,61.671,0"/>
			<path style="fill:none;stroke:#ED1C24;stroke-width:2;stroke-miterlimit:10;" d="M50.983,82.144c43.829,0,17.842,0,61.671,0"/>
			<path style="fill:none;stroke:#ED1C24;stroke-width:2;stroke-miterlimit:10;" d="M50.983,77.873c42.604,0,19.067,0,61.671,0"/>
			<path style="fill:none;stroke:#ED1C24;stroke-width:2;stroke-miterlimit:10;" d="M50.983,73.602c41.379,0,20.292,0,61.671,0"/>
			<path style="fill:none;stroke:#ED1C24;stroke-width:2;stroke-miterlimit:10;" d="M50.983,69.332c40.154,0,21.517,0,61.671,0"/>
			<path style="fill:none;stroke:#ED1C24;stroke-width:2;stroke-miterlimit:10;" d="M50.983,65.061c38.93,0,22.742,0,61.671,0"/>
			<path style="fill:none;stroke:#ED1C24;stroke-width:2;stroke-miterlimit:10;" d="M50.983,60.79c37.705,0,23.967,0,61.671,0"/>
			<path style="fill:none;stroke:#ED1C24;stroke-width:2;stroke-miterlimit:10;" d="M50.983,56.519c36.48,0,25.191,0,61.671,0"/>
			<path style="fill:none;stroke:#ED1C24;stroke-width:2;stroke-miterlimit:10;" d="M50.983,52.249c35.255,0,26.416,0,61.671,0"/>
			<path style="fill:none;stroke:#ED1C24;stroke-width:2;stroke-miterlimit:10;" d="M50.983,47.978c34.03,0,27.641,0,61.671,0"/>
			<path style="fill:none;stroke:#ED1C24;stroke-width:2;stroke-miterlimit:10;" d="M50.983,43.707c32.805,0,28.866,0,61.671,0"/>
			<path style="fill:none;stroke:#ED1C24;stroke-width:2;stroke-miterlimit:10;" d="M50.983,39.437c31.581,0,30.091,0,61.671,0"/>
			<path style="fill:none;stroke:#ED1C24;stroke-width:2;stroke-miterlimit:10;" d="M50.983,35.166c30.356,0,31.316,0,61.671,0"/>
			<path style="fill:none;stroke:#ED1C24;stroke-width:2;stroke-miterlimit:10;" d="M50.983,30.895c29.131,0,32.54,0,61.671,0"/>
			<path style="fill:none;stroke:#ED1C24;stroke-width:2;stroke-miterlimit:10;" d="M50.983,26.624c27.906,0,33.765,0,61.671,0"/>
			<path style="fill:none;stroke:#ED1C24;stroke-width:2;stroke-miterlimit:10;" d="M50.983,22.354c26.681,0,34.99,0,61.671,0"/>
			<path style="fill:none;stroke:#ED1C24;stroke-width:2;stroke-miterlimit:10;" d="M50.983,18.083c25.456,0,36.215,0,61.671,0"/>
			<path style="fill:none;stroke:#ED1C24;stroke-width:2;stroke-miterlimit:10;" d="M50.983,13.812c24.232,0,37.44,0,61.671,0"/>
			<path style="fill:none;stroke:#ED1C24;stroke-width:2;stroke-miterlimit:10;" d="M50.983,9.541c23.007,0,38.665,0,61.671,0"/>
			<path style="fill:none;stroke:#ED1C24;stroke-width:2;stroke-miterlimit:10;" d="M50.983,5.271c21.782,0,39.889,0,61.671,0"/>
			<path style="fill:none;stroke:#ED1C24;stroke-width:2;stroke-miterlimit:10;" d="M50.983,1c20.557,0,41.114,0,61.671,0"/>
		</g>
	</g>
	<path style="fill:none;stroke:#ED1C24;stroke-width:3;stroke-miterlimit:10;" d="M64.021,88.518
		c6.002-15.394,15.327-38.627,21.329-54.021c6.001,15.065,15.677,38.956,21.678,54.021c-6.642,17.103-15.036,36.743-21.678,53.846
		C79.989,125.59,69.382,105.292,64.021,88.518z"/>
	<path style="fill:none;stroke:#ED1C24;stroke-width:3;stroke-miterlimit:10;" d="M122.883,88.518
		c6.002-15.394,15.327-38.627,21.329-54.021c6.001,15.065,15.677,38.956,21.678,54.021c-6.642,17.103-15.036,36.743-21.678,53.846
		C138.851,125.59,128.244,105.292,122.883,88.518z"/>
	<path style="fill:none;stroke:#ED1C24;stroke-width:3;stroke-miterlimit:10;" d="M180.804,88.518
		c6.002-15.394,15.327-38.627,21.329-54.021c6.001,15.065,15.677,38.956,21.678,54.021c-6.642,17.103-15.036,36.743-21.678,53.846
		C196.772,125.59,186.165,105.292,180.804,88.518z"/>
</g>
<g id="Layer_1">
</g>
</svg>
