<?xml version="1.0" encoding="iso-8859-1"?>
<!-- Generator: Adobe Illustrator 27.4.1, SVG Export Plug-In . SVG Version: 6.00 Build 0)  -->
<svg version="1.1" xmlns="http://www.w3.org/2000/svg" xmlns:xlink="http://www.w3.org/1999/xlink" x="0px" y="0px"
	 viewBox="0 0 289.112 181.371" style="enable-background:new 0 0 289.112 181.371;" xml:space="preserve">
<g id="RSL2">
	<path style="fill:#FFFFFF;stroke:#000000;stroke-miterlimit:10;" d="M279.612,180.004H9.5c-4.971,0-9-4.029-9-9V10.682
		c0-4.971,4.029-9,9-9h270.112c4.971,0,9,4.029,9,9v160.322C288.612,175.975,284.582,180.004,279.612,180.004z"/>
	<g>
		<defs>
			<path id="SVGID_1_" d="M162.797,117.878c0-20.455,0-40.909,0-61.364c1.415-8.726,8.751-15.231,17.257-15.565
				c9.136-0.359,17.393,6.489,18.757,15.915c0,20.804,0,41.608,0,62.413c-1.347,8.855-8.542,15.476-16.781,15.984
				C172.573,135.844,163.671,128.253,162.797,117.878z"/>
		</defs>
		<clipPath id="SVGID_00000058558927105936792000000005294947584770548099_">
			<use xlink:href="#SVGID_1_"  style="overflow:visible;"/>
		</clipPath>
		<g style="clip-path:url(#SVGID_00000058558927105936792000000005294947584770548099_);">
			<path style="fill:none;stroke:#ED1C24;stroke-width:2;stroke-miterlimit:10;" d="M155.28,180.371c72,0-10.329,0,61.671,0"/>
			<path style="fill:none;stroke:#ED1C24;stroke-width:2;stroke-miterlimit:10;" d="M155.28,176.1c70.775,0-9.104,0,61.671,0"/>
			<path style="fill:none;stroke:#ED1C24;stroke-width:2;stroke-miterlimit:10;" d="M155.28,171.829c69.55,0-7.879,0,61.671,0"/>
			<path style="fill:none;stroke:#ED1C24;stroke-width:2;stroke-miterlimit:10;" d="M155.28,167.558c68.326,0-6.654,0,61.671,0"/>
			<path style="fill:none;stroke:#ED1C24;stroke-width:2;stroke-miterlimit:10;" d="M155.28,163.288c67.101,0-5.429,0,61.671,0"/>
			<path style="fill:none;stroke:#ED1C24;stroke-width:2;stroke-miterlimit:10;" d="M155.28,159.017c65.876,0-4.205,0,61.671,0"/>
			<path style="fill:none;stroke:#ED1C24;stroke-width:2;stroke-miterlimit:10;" d="M155.28,154.746c64.651,0-2.98,0,61.671,0"/>
			<path style="fill:none;stroke:#ED1C24;stroke-width:2;stroke-miterlimit:10;" d="M155.28,150.476c63.426,0-1.755,0,61.671,0"/>
			<path style="fill:none;stroke:#ED1C24;stroke-width:2;stroke-miterlimit:10;" d="M155.28,146.205c62.201,0-0.53,0,61.671,0"/>
			<path style="fill:none;stroke:#ED1C24;stroke-width:2;stroke-miterlimit:10;" d="M155.28,141.934c60.977,0,0.695,0,61.671,0"/>
			<path style="fill:none;stroke:#ED1C24;stroke-width:2;stroke-miterlimit:10;" d="M155.28,137.663c59.752,0,1.92,0,61.671,0"/>
			<path style="fill:none;stroke:#ED1C24;stroke-width:2;stroke-miterlimit:10;" d="M155.28,133.393c58.527,0,3.144,0,61.671,0"/>
			<path style="fill:none;stroke:#ED1C24;stroke-width:2;stroke-miterlimit:10;" d="M155.28,129.122c57.302,0,4.369,0,61.671,0"/>
			<path style="fill:none;stroke:#ED1C24;stroke-width:2;stroke-miterlimit:10;" d="M155.28,124.851c56.077,0,5.594,0,61.671,0"/>
			<path style="fill:none;stroke:#ED1C24;stroke-width:2;stroke-miterlimit:10;" d="M155.28,120.58c54.852,0,6.819,0,61.671,0"/>
			<path style="fill:none;stroke:#ED1C24;stroke-width:2;stroke-miterlimit:10;" d="M155.28,116.31c53.628,0,8.044,0,61.671,0"/>
			<path style="fill:none;stroke:#ED1C24;stroke-width:2;stroke-miterlimit:10;" d="M155.28,112.039c52.403,0,9.269,0,61.671,0"/>
			<path style="fill:none;stroke:#ED1C24;stroke-width:2;stroke-miterlimit:10;" d="M155.28,107.768c51.178,0,10.493,0,61.671,0"/>
			<path style="fill:none;stroke:#ED1C24;stroke-width:2;stroke-miterlimit:10;" d="M155.28,103.497c49.953,0,11.718,0,61.671,0"/>
			<path style="fill:none;stroke:#ED1C24;stroke-width:2;stroke-miterlimit:10;" d="M155.28,99.227c48.728,0,12.943,0,61.671,0"/>
			<path style="fill:none;stroke:#ED1C24;stroke-width:2;stroke-miterlimit:10;" d="M155.28,94.956c47.503,0,14.168,0,61.671,0"/>
			<path style="fill:none;stroke:#ED1C24;stroke-width:2;stroke-miterlimit:10;" d="M155.28,90.685c46.279,0,15.393,0,61.671,0"/>
			<path style="fill:none;stroke:#ED1C24;stroke-width:2;stroke-miterlimit:10;" d="M155.28,86.415c45.054,0,16.618,0,61.671,0"/>
			<path style="fill:none;stroke:#ED1C24;stroke-width:2;stroke-miterlimit:10;" d="M155.28,82.144c43.829,0,17.842,0,61.671,0"/>
			<path style="fill:none;stroke:#ED1C24;stroke-width:2;stroke-miterlimit:10;" d="M155.28,77.873c42.604,0,19.067,0,61.671,0"/>
			<path style="fill:none;stroke:#ED1C24;stroke-width:2;stroke-miterlimit:10;" d="M155.28,73.602c41.379,0,20.292,0,61.671,0"/>
			<path style="fill:none;stroke:#ED1C24;stroke-width:2;stroke-miterlimit:10;" d="M155.28,69.332c40.154,0,21.517,0,61.671,0"/>
			<path style="fill:none;stroke:#ED1C24;stroke-width:2;stroke-miterlimit:10;" d="M155.28,65.061c38.93,0,22.742,0,61.671,0"/>
			<path style="fill:none;stroke:#ED1C24;stroke-width:2;stroke-miterlimit:10;" d="M155.28,60.79c37.705,0,23.967,0,61.671,0"/>
			<path style="fill:none;stroke:#ED1C24;stroke-width:2;stroke-miterlimit:10;" d="M155.28,56.519c36.48,0,25.191,0,61.671,0"/>
			<path style="fill:none;stroke:#ED1C24;stroke-width:2;stroke-miterlimit:10;" d="M155.28,52.249c35.255,0,26.416,0,61.671,0"/>
			<path style="fill:none;stroke:#ED1C24;stroke-width:2;stroke-miterlimit:10;" d="M155.28,47.978c34.03,0,27.641,0,61.671,0"/>
			<path style="fill:none;stroke:#ED1C24;stroke-width:2;stroke-miterlimit:10;" d="M155.28,43.707c32.805,0,28.866,0,61.671,0"/>
			<path style="fill:none;stroke:#ED1C24;stroke-width:2;stroke-miterlimit:10;" d="M155.28,39.437c31.581,0,30.091,0,61.671,0"/>
			<path style="fill:none;stroke:#ED1C24;stroke-width:2;stroke-miterlimit:10;" d="M155.28,35.166c30.356,0,31.316,0,61.671,0"/>
			<path style="fill:none;stroke:#ED1C24;stroke-width:2;stroke-miterlimit:10;" d="M155.28,30.895c29.131,0,32.54,0,61.671,0"/>
			<path style="fill:none;stroke:#ED1C24;stroke-width:2;stroke-miterlimit:10;" d="M155.28,26.624c27.906,0,33.765,0,61.671,0"/>
			<path style="fill:none;stroke:#ED1C24;stroke-width:2;stroke-miterlimit:10;" d="M155.28,22.354c26.681,0,34.99,0,61.671,0"/>
			<path style="fill:none;stroke:#ED1C24;stroke-width:2;stroke-miterlimit:10;" d="M155.28,18.083c25.456,0,36.215,0,61.671,0"/>
			<path style="fill:none;stroke:#ED1C24;stroke-width:2;stroke-miterlimit:10;" d="M155.28,13.812c24.232,0,37.44,0,61.671,0"/>
			<path style="fill:none;stroke:#ED1C24;stroke-width:2;stroke-miterlimit:10;" d="M155.28,9.541c23.007,0,38.665,0,61.671,0"/>
			<path style="fill:none;stroke:#ED1C24;stroke-width:2;stroke-miterlimit:10;" d="M155.28,5.271c21.782,0,39.889,0,61.671,0"/>
			<path style="fill:none;stroke:#ED1C24;stroke-width:2;stroke-miterlimit:10;" d="M155.28,1c20.557,0,41.114,0,61.671,0"/>
		</g>
	</g>
	<g>
		<defs>
			<path id="SVGID_00000124861721338978292610000017919179740032455839_" d="M89.021,118.362c0-20.455,0-40.909,0-61.364
				c1.415-8.726,8.751-15.231,17.257-15.565c9.136-0.359,17.393,6.489,18.757,15.915c0,20.804,0,41.608,0,62.413
				c-1.347,8.855-8.542,15.476-16.781,15.984C98.797,136.328,89.895,128.738,89.021,118.362z"/>
		</defs>
		<clipPath id="SVGID_00000052791640559958402760000017005103012279437238_">
			<use xlink:href="#SVGID_00000124861721338978292610000017919179740032455839_"  style="overflow:visible;"/>
		</clipPath>
		<g style="clip-path:url(#SVGID_00000052791640559958402760000017005103012279437238_);">
			<path style="fill:none;stroke:#ED1C24;stroke-width:2;stroke-miterlimit:10;" d="M73.143,180.371c72,0-10.329,0,61.671,0"/>
			<path style="fill:none;stroke:#ED1C24;stroke-width:2;stroke-miterlimit:10;" d="M73.143,176.1c70.775,0-9.104,0,61.671,0"/>
			<path style="fill:none;stroke:#ED1C24;stroke-width:2;stroke-miterlimit:10;" d="M73.143,171.829c69.55,0-7.879,0,61.671,0"/>
			<path style="fill:none;stroke:#ED1C24;stroke-width:2;stroke-miterlimit:10;" d="M73.143,167.558c68.326,0-6.654,0,61.671,0"/>
			<path style="fill:none;stroke:#ED1C24;stroke-width:2;stroke-miterlimit:10;" d="M73.143,163.288c67.101,0-5.429,0,61.671,0"/>
			<path style="fill:none;stroke:#ED1C24;stroke-width:2;stroke-miterlimit:10;" d="M73.143,159.017c65.876,0-4.205,0,61.671,0"/>
			<path style="fill:none;stroke:#ED1C24;stroke-width:2;stroke-miterlimit:10;" d="M73.143,154.746c64.651,0-2.98,0,61.671,0"/>
			<path style="fill:none;stroke:#ED1C24;stroke-width:2;stroke-miterlimit:10;" d="M73.143,150.476c63.426,0-1.755,0,61.671,0"/>
			<path style="fill:none;stroke:#ED1C24;stroke-width:2;stroke-miterlimit:10;" d="M73.143,146.205c62.201,0-0.53,0,61.671,0"/>
			<path style="fill:none;stroke:#ED1C24;stroke-width:2;stroke-miterlimit:10;" d="M73.143,141.934c60.977,0,0.695,0,61.671,0"/>
			<path style="fill:none;stroke:#ED1C24;stroke-width:2;stroke-miterlimit:10;" d="M73.143,137.663c59.752,0,1.92,0,61.671,0"/>
			<path style="fill:none;stroke:#ED1C24;stroke-width:2;stroke-miterlimit:10;" d="M73.143,133.393c58.527,0,3.144,0,61.671,0"/>
			<path style="fill:none;stroke:#ED1C24;stroke-width:2;stroke-miterlimit:10;" d="M73.143,129.122c57.302,0,4.369,0,61.671,0"/>
			<path style="fill:none;stroke:#ED1C24;stroke-width:2;stroke-miterlimit:10;" d="M73.143,124.851c56.077,0,5.594,0,61.671,0"/>
			<path style="fill:none;stroke:#ED1C24;stroke-width:2;stroke-miterlimit:10;" d="M73.143,120.58c54.852,0,6.819,0,61.671,0"/>
			<path style="fill:none;stroke:#ED1C24;stroke-width:2;stroke-miterlimit:10;" d="M73.143,116.31c53.628,0,8.044,0,61.671,0"/>
			<path style="fill:none;stroke:#ED1C24;stroke-width:2;stroke-miterlimit:10;" d="M73.143,112.039c52.403,0,9.269,0,61.671,0"/>
			<path style="fill:none;stroke:#ED1C24;stroke-width:2;stroke-miterlimit:10;" d="M73.143,107.768c51.178,0,10.493,0,61.671,0"/>
			<path style="fill:none;stroke:#ED1C24;stroke-width:2;stroke-miterlimit:10;" d="M73.143,103.497c49.953,0,11.718,0,61.671,0"/>
			<path style="fill:none;stroke:#ED1C24;stroke-width:2;stroke-miterlimit:10;" d="M73.143,99.227c48.728,0,12.943,0,61.671,0"/>
			<path style="fill:none;stroke:#ED1C24;stroke-width:2;stroke-miterlimit:10;" d="M73.143,94.956c47.503,0,14.168,0,61.671,0"/>
			<path style="fill:none;stroke:#ED1C24;stroke-width:2;stroke-miterlimit:10;" d="M73.143,90.685c46.279,0,15.393,0,61.671,0"/>
			<path style="fill:none;stroke:#ED1C24;stroke-width:2;stroke-miterlimit:10;" d="M73.143,86.415c45.054,0,16.618,0,61.671,0"/>
			<path style="fill:none;stroke:#ED1C24;stroke-width:2;stroke-miterlimit:10;" d="M73.143,82.144c43.829,0,17.842,0,61.671,0"/>
			<path style="fill:none;stroke:#ED1C24;stroke-width:2;stroke-miterlimit:10;" d="M73.143,77.873c42.604,0,19.067,0,61.671,0"/>
			<path style="fill:none;stroke:#ED1C24;stroke-width:2;stroke-miterlimit:10;" d="M73.143,73.602c41.379,0,20.292,0,61.671,0"/>
			<path style="fill:none;stroke:#ED1C24;stroke-width:2;stroke-miterlimit:10;" d="M73.143,69.332c40.154,0,21.517,0,61.671,0"/>
			<path style="fill:none;stroke:#ED1C24;stroke-width:2;stroke-miterlimit:10;" d="M73.143,65.061c38.93,0,22.742,0,61.671,0"/>
			<path style="fill:none;stroke:#ED1C24;stroke-width:2;stroke-miterlimit:10;" d="M73.143,60.79c37.705,0,23.967,0,61.671,0"/>
			<path style="fill:none;stroke:#ED1C24;stroke-width:2;stroke-miterlimit:10;" d="M73.143,56.519c36.48,0,25.191,0,61.671,0"/>
			<path style="fill:none;stroke:#ED1C24;stroke-width:2;stroke-miterlimit:10;" d="M73.143,52.249c35.255,0,26.416,0,61.671,0"/>
			<path style="fill:none;stroke:#ED1C24;stroke-width:2;stroke-miterlimit:10;" d="M73.143,47.978c34.03,0,27.641,0,61.671,0"/>
			<path style="fill:none;stroke:#ED1C24;stroke-width:2;stroke-miterlimit:10;" d="M73.143,43.707c32.805,0,28.866,0,61.671,0"/>
			<path style="fill:none;stroke:#ED1C24;stroke-width:2;stroke-miterlimit:10;" d="M73.143,39.437c31.581,0,30.091,0,61.671,0"/>
			<path style="fill:none;stroke:#ED1C24;stroke-width:2;stroke-miterlimit:10;" d="M73.143,35.166c30.356,0,31.316,0,61.671,0"/>
			<path style="fill:none;stroke:#ED1C24;stroke-width:2;stroke-miterlimit:10;" d="M73.143,30.895c29.131,0,32.54,0,61.671,0"/>
			<path style="fill:none;stroke:#ED1C24;stroke-width:2;stroke-miterlimit:10;" d="M73.143,26.624c27.906,0,33.765,0,61.671,0"/>
			<path style="fill:none;stroke:#ED1C24;stroke-width:2;stroke-miterlimit:10;" d="M73.143,22.354c26.681,0,34.99,0,61.671,0"/>
			<path style="fill:none;stroke:#ED1C24;stroke-width:2;stroke-miterlimit:10;" d="M73.143,18.083c25.456,0,36.215,0,61.671,0"/>
			<path style="fill:none;stroke:#ED1C24;stroke-width:2;stroke-miterlimit:10;" d="M73.143,13.812c24.232,0,37.44,0,61.671,0"/>
			<path style="fill:none;stroke:#ED1C24;stroke-width:2;stroke-miterlimit:10;" d="M73.143,9.541c23.007,0,38.665,0,61.671,0"/>
			<path style="fill:none;stroke:#ED1C24;stroke-width:2;stroke-miterlimit:10;" d="M73.143,5.271c21.782,0,39.889,0,61.671,0"/>
			<path style="fill:none;stroke:#ED1C24;stroke-width:2;stroke-miterlimit:10;" d="M73.143,1c20.557,0,41.114,0,61.671,0"/>
		</g>
	</g>
	<path style="fill:none;stroke:#ED1C24;stroke-width:3;stroke-miterlimit:10;" d="M162.797,117.878c0-20.455,0-40.909,0-61.364
		c1.415-8.726,8.751-15.231,17.257-15.565c9.136-0.359,17.393,6.489,18.757,15.915c0,20.804,0,41.608,0,62.413
		c-1.347,8.855-8.542,15.476-16.781,15.984C172.573,135.844,163.671,128.253,162.797,117.878z"/>
	<path style="fill:none;stroke:#ED1C24;stroke-width:3;stroke-miterlimit:10;" d="M89.021,118.362c0-20.455,0-40.909,0-61.364
		c1.415-8.726,8.751-15.231,17.257-15.565c9.136-0.359,17.393,6.489,18.757,15.915c0,20.804,0,41.608,0,62.413
		c-1.347,8.855-8.542,15.476-16.781,15.984C98.797,136.328,89.895,128.738,89.021,118.362z"/>
</g>
<g id="Layer_1">
</g>
</svg>
